<svg class="main-svg" xmlns="http://www.w3.org/2000/svg" xmlns:xlink="http://www.w3.org/1999/xlink" width="2400" height="1500" style="" viewBox="0 0 800 500"><rect x="0" y="0" width="800" height="500" style="fill: rgb(255, 255, 255); fill-opacity: 1;"/><defs id="defs-a0e15f"><g class="clips"><clipPath id="clipa0e15fxyplot" class="plotclip"><rect width="555" height="320"/></clipPath><clipPath class="axesclip" id="clipa0e15fx"><rect x="80" y="0" width="555" height="500"/></clipPath><clipPath class="axesclip" id="clipa0e15fy"><rect x="0" y="100" width="800" height="320"/></clipPath><clipPath class="axesclip" id="clipa0e15fxy"><rect x="80" y="100" width="555" height="320"/></clipPath></g><g class="gradients"/><g class="patterns"/></defs><g class="bglayer"/><g class="layer-below"><g class="imagelayer"/><g class="shapelayer"/></g><g class="cartesianlayer"><g class="subplot xy"><g class="layer-subplot"><g class="shapelayer"/><g class="imagelayer"/></g><g class="minor-gridlayer"><g class="x"/><g class="y"/></g><g class="gridlayer"><g class="x"><path class="xgrid crisp" transform="translate(158.26999999999998,0)" d="M0,100v320" style="stroke: rgb(235, 240, 248); stroke-opacity: 1; stroke-width: 1px;"/><path class="xgrid crisp" transform="translate(246.82,0)" d="M0,100v320" style="stroke: rgb(235, 240, 248); stroke-opacity: 1; stroke-width: 1px;"/><path class="xgrid crisp" transform="translate(335.36,0)" d="M0,100v320" style="stroke: rgb(235, 240, 248); stroke-opacity: 1; stroke-width: 1px;"/><path class="xgrid crisp" transform="translate(423.91,0)" d="M0,100v320" style="stroke: rgb(235, 240, 248); stroke-opacity: 1; stroke-width: 1px;"/><path class="xgrid crisp" transform="translate(512.45,0)" d="M0,100v320" style="stroke: rgb(235, 240, 248); stroke-opacity: 1; stroke-width: 1px;"/><path class="xgrid crisp" transform="translate(601,0)" d="M0,100v320" style="stroke: rgb(235, 240, 248); stroke-opacity: 1; stroke-width: 1px;"/></g><g class="y"><path class="ygrid crisp" transform="translate(0,400.45)" d="M80,0h555" style="stroke: rgb(235, 240, 248); stroke-opacity: 1; stroke-width: 1px;"/><path class="ygrid crisp" transform="translate(0,362.61)" d="M80,0h555" style="stroke: rgb(235, 240, 248); stroke-opacity: 1; stroke-width: 1px;"/><path class="ygrid crisp" transform="translate(0,324.78)" d="M80,0h555" style="stroke: rgb(235, 240, 248); stroke-opacity: 1; stroke-width: 1px;"/><path class="ygrid crisp" transform="translate(0,286.95)" d="M80,0h555" style="stroke: rgb(235, 240, 248); stroke-opacity: 1; stroke-width: 1px;"/><path class="ygrid crisp" transform="translate(0,249.12)" d="M80,0h555" style="stroke: rgb(235, 240, 248); stroke-opacity: 1; stroke-width: 1px;"/><path class="ygrid crisp" transform="translate(0,211.29000000000002)" d="M80,0h555" style="stroke: rgb(235, 240, 248); stroke-opacity: 1; stroke-width: 1px;"/><path class="ygrid crisp" transform="translate(0,173.45999999999998)" d="M80,0h555" style="stroke: rgb(235, 240, 248); stroke-opacity: 1; stroke-width: 1px;"/><path class="ygrid crisp" transform="translate(0,135.62)" d="M80,0h555" style="stroke: rgb(235, 240, 248); stroke-opacity: 1; stroke-width: 1px;"/></g></g><g class="zerolinelayer"/><g class="layer-between"><g class="shapelayer"/><g class="imagelayer"/></g><path class="xlines-below"/><path class="ylines-below"/><g class="overlines-below"/><g class="xaxislayer-below"/><g class="yaxislayer-below"/><g class="overaxes-below"/><g class="overplot"><g class="xy" transform="translate(80,100)" clip-path="url(#clipa0e15fxyplot)"><g class="scatterlayer mlayer"><g class="trace scatter trace70b66a" style="stroke-miterlimit: 2; opacity: 1;"><g class="fills"/><g class="errorbars"><g class="errorbar"><path class="yerror" d="M30,81.09h8m-4,0V85.18m-4,0h8" style="vector-effect: none; stroke-width: 2px; stroke: rgb(224, 81, 81); stroke-opacity: 1;"/></g><g class="errorbar"><path class="yerror" d="M52.14,42.54h8m-4,0V45.53m-4,0h8" style="vector-effect: none; stroke-width: 2px; stroke: rgb(224, 81, 81); stroke-opacity: 1;"/></g><g class="errorbar"><path class="yerror" d="M74.27,25.92h8m-4,0V28.34m-4,0h8" style="vector-effect: none; stroke-width: 2px; stroke: rgb(224, 81, 81); stroke-opacity: 1;"/></g><g class="errorbar"><path class="yerror" d="M118.55,21.77h8m-4,0V22.73m-4,0h8" style="vector-effect: none; stroke-width: 2px; stroke: rgb(224, 81, 81); stroke-opacity: 1;"/></g><g class="errorbar"><path class="yerror" d="M162.82,31.37h8m-4,0V32.2m-4,0h8" style="vector-effect: none; stroke-width: 2px; stroke: rgb(224, 81, 81); stroke-opacity: 1;"/></g><g class="errorbar"><path class="yerror" d="M251.36,55.93h8m-4,0V56.6m-4,0h8" style="vector-effect: none; stroke-width: 2px; stroke: rgb(224, 81, 81); stroke-opacity: 1;"/></g><g class="errorbar"><path class="yerror" d="M339.91,76.76h8m-4,0V77.2m-4,0h8" style="vector-effect: none; stroke-width: 2px; stroke: rgb(224, 81, 81); stroke-opacity: 1;"/></g><g class="errorbar"><path class="yerror" d="M517,106.94h8m-4,0V107.43m-4,0h8" style="vector-effect: none; stroke-width: 2px; stroke: rgb(224, 81, 81); stroke-opacity: 1;"/></g></g><g class="lines"><path class="js-line" d="M34,83.14L56.14,44.04L78.27,27.13L122.55,22.25L166.82,31.79L255.36,56.27L343.91,76.98L521,107.19" style="vector-effect: none; fill: none; stroke: rgb(224, 81, 81); stroke-opacity: 1; stroke-width: 2px; opacity: 1;"/></g><g class="points"><path class="point" transform="translate(34,83.14)" d="M5,0A5,5 0 1,1 0,-5A5,5 0 0,1 5,0Z" style="opacity: 1; stroke-width: 0px; fill: rgb(224, 81, 81); fill-opacity: 1;"/><path class="point" transform="translate(56.14,44.04)" d="M5,0A5,5 0 1,1 0,-5A5,5 0 0,1 5,0Z" style="opacity: 1; stroke-width: 0px; fill: rgb(224, 81, 81); fill-opacity: 1;"/><path class="point" transform="translate(78.27,27.13)" d="M5,0A5,5 0 1,1 0,-5A5,5 0 0,1 5,0Z" style="opacity: 1; stroke-width: 0px; fill: rgb(224, 81, 81); fill-opacity: 1;"/><path class="point" transform="translate(122.55,22.25)" d="M5,0A5,5 0 1,1 0,-5A5,5 0 0,1 5,0Z" style="opacity: 1; stroke-width: 0px; fill: rgb(224, 81, 81); fill-opacity: 1;"/><path class="point" transform="translate(166.82,31.79)" d="M5,0A5,5 0 1,1 0,-5A5,5 0 0,1 5,0Z" style="opacity: 1; stroke-width: 0px; fill: rgb(224, 81, 81); fill-opacity: 1;"/><path class="point" transform="translate(255.36,56.27)" d="M5,0A5,5 0 1,1 0,-5A5,5 0 0,1 5,0Z" style="opacity: 1; stroke-width: 0px; fill: rgb(224, 81, 81); fill-opacity: 1;"/><path class="point" transform="translate(343.91,76.98)" d="M5,0A5,5 0 1,1 0,-5A5,5 0 0,1 5,0Z" style="opacity: 1; stroke-width: 0px; fill: rgb(224, 81, 81); fill-opacity: 1;"/><path class="point" transform="translate(521,107.19)" d="M5,0A5,5 0 1,1 0,-5A5,5 0 0,1 5,0Z" style="opacity: 1; stroke-width: 0px; fill: rgb(224, 81, 81); fill-opacity: 1;"/></g><g class="text"/></g><g class="trace scatter trace649dc6" style="stroke-miterlimit: 2; opacity: 1;"><g class="fills"/><g class="errorbars"><g class="errorbar"><path class="yerror" d="M30,124.42h8m-4,0V128.1m-4,0h8" style="vector-effect: none; stroke-width: 2px; stroke: rgb(224, 224, 81); stroke-opacity: 1;"/></g><g class="errorbar"><path class="yerror" d="M52.14,80.89h8m-4,0V83.59m-4,0h8" style="vector-effect: none; stroke-width: 2px; stroke: rgb(224, 224, 81); stroke-opacity: 1;"/></g><g class="errorbar"><path class="yerror" d="M74.27,57.63h8m-4,0V59.72m-4,0h8" style="vector-effect: none; stroke-width: 2px; stroke: rgb(224, 224, 81); stroke-opacity: 1;"/></g><g class="errorbar"><path class="yerror" d="M118.55,42.07h8m-4,0V42.87m-4,0h8" style="vector-effect: none; stroke-width: 2px; stroke: rgb(224, 224, 81); stroke-opacity: 1;"/></g><g class="errorbar"><path class="yerror" d="M162.82,44.42h8m-4,0V45.13m-4,0h8" style="vector-effect: none; stroke-width: 2px; stroke: rgb(224, 224, 81); stroke-opacity: 1;"/></g><g class="errorbar"><path class="yerror" d="M251.36,61.97h8m-4,0V62.54m-4,0h8" style="vector-effect: none; stroke-width: 2px; stroke: rgb(224, 224, 81); stroke-opacity: 1;"/></g><g class="errorbar"><path class="yerror" d="M339.91,80.05h8m-4,0V80.46m-4,0h8" style="vector-effect: none; stroke-width: 2px; stroke: rgb(224, 224, 81); stroke-opacity: 1;"/></g><g class="errorbar"><path class="yerror" d="M517,108.32h8m-4,0V108.8m-4,0h8" style="vector-effect: none; stroke-width: 2px; stroke: rgb(224, 224, 81); stroke-opacity: 1;"/></g></g><g class="lines"><path class="js-line" d="M34,126.26L56.14,82.24L78.27,58.68L122.55,42.47L166.82,44.78L343.91,80.25L521,108.56" style="vector-effect: none; fill: none; stroke: rgb(224, 224, 81); stroke-opacity: 1; stroke-width: 2px; opacity: 1;"/></g><g class="points"><path class="point" transform="translate(34,126.26)" d="M5,0A5,5 0 1,1 0,-5A5,5 0 0,1 5,0Z" style="opacity: 1; stroke-width: 0px; fill: rgb(224, 224, 81); fill-opacity: 1;"/><path class="point" transform="translate(56.14,82.24)" d="M5,0A5,5 0 1,1 0,-5A5,5 0 0,1 5,0Z" style="opacity: 1; stroke-width: 0px; fill: rgb(224, 224, 81); fill-opacity: 1;"/><path class="point" transform="translate(78.27,58.68)" d="M5,0A5,5 0 1,1 0,-5A5,5 0 0,1 5,0Z" style="opacity: 1; stroke-width: 0px; fill: rgb(224, 224, 81); fill-opacity: 1;"/><path class="point" transform="translate(122.55,42.47)" d="M5,0A5,5 0 1,1 0,-5A5,5 0 0,1 5,0Z" style="opacity: 1; stroke-width: 0px; fill: rgb(224, 224, 81); fill-opacity: 1;"/><path class="point" transform="translate(166.82,44.78)" d="M5,0A5,5 0 1,1 0,-5A5,5 0 0,1 5,0Z" style="opacity: 1; stroke-width: 0px; fill: rgb(224, 224, 81); fill-opacity: 1;"/><path class="point" transform="translate(255.36,62.26)" d="M5,0A5,5 0 1,1 0,-5A5,5 0 0,1 5,0Z" style="opacity: 1; stroke-width: 0px; fill: rgb(224, 224, 81); fill-opacity: 1;"/><path class="point" transform="translate(343.91,80.25)" d="M5,0A5,5 0 1,1 0,-5A5,5 0 0,1 5,0Z" style="opacity: 1; stroke-width: 0px; fill: rgb(224, 224, 81); fill-opacity: 1;"/><path class="point" transform="translate(521,108.56)" d="M5,0A5,5 0 1,1 0,-5A5,5 0 0,1 5,0Z" style="opacity: 1; stroke-width: 0px; fill: rgb(224, 224, 81); fill-opacity: 1;"/></g><g class="text"/></g><g class="trace scatter trace066839" style="stroke-miterlimit: 2; opacity: 1;"><g class="fills"/><g class="errorbars"><g class="errorbar"><path class="yerror" d="M30,148.1h8m-4,0V151.46m-4,0h8" style="vector-effect: none; stroke-width: 2px; stroke: rgb(81, 224, 81); stroke-opacity: 1;"/></g><g class="errorbar"><path class="yerror" d="M52.14,105.02h8m-4,0V107.52m-4,0h8" style="vector-effect: none; stroke-width: 2px; stroke: rgb(81, 224, 81); stroke-opacity: 1;"/></g><g class="errorbar"><path class="yerror" d="M74.27,79.8h8m-4,0V81.7m-4,0h8" style="vector-effect: none; stroke-width: 2px; stroke: rgb(81, 224, 81); stroke-opacity: 1;"/></g><g class="errorbar"><path class="yerror" d="M118.55,58.55h8m-4,0V59.29m-4,0h8" style="vector-effect: none; stroke-width: 2px; stroke: rgb(81, 224, 81); stroke-opacity: 1;"/></g><g class="errorbar"><path class="yerror" d="M162.82,56.1h8m-4,0V56.73m-4,0h8" style="vector-effect: none; stroke-width: 2px; stroke: rgb(81, 224, 81); stroke-opacity: 1;"/></g><g class="errorbar"><path class="yerror" d="M251.36,68h8m-4,0V68.48m-4,0h8" style="vector-effect: none; stroke-width: 2px; stroke: rgb(81, 224, 81); stroke-opacity: 1;"/></g><g class="errorbar"><path class="yerror" d="M339.91,83.5h8m-4,0V83.87m-4,0h8" style="vector-effect: none; stroke-width: 2px; stroke: rgb(81, 224, 81); stroke-opacity: 1;"/></g><g class="errorbar"><path class="yerror" d="M517,109.83h8m-4,0V110.28m-4,0h8" style="vector-effect: none; stroke-width: 2px; stroke: rgb(81, 224, 81); stroke-opacity: 1;"/></g></g><g class="lines"><path class="js-line" d="M34,149.78L56.14,106.27L78.27,80.75L122.55,58.92L166.82,56.42L255.36,68.24L343.91,83.68L521,110.06" style="vector-effect: none; fill: none; stroke: rgb(81, 224, 81); stroke-opacity: 1; stroke-width: 2px; opacity: 1;"/></g><g class="points"><path class="point" transform="translate(34,149.78)" d="M5,0A5,5 0 1,1 0,-5A5,5 0 0,1 5,0Z" style="opacity: 1; stroke-width: 0px; fill: rgb(81, 224, 81); fill-opacity: 1;"/><path class="point" transform="translate(56.14,106.27)" d="M5,0A5,5 0 1,1 0,-5A5,5 0 0,1 5,0Z" style="opacity: 1; stroke-width: 0px; fill: rgb(81, 224, 81); fill-opacity: 1;"/><path class="point" transform="translate(78.27,80.75)" d="M5,0A5,5 0 1,1 0,-5A5,5 0 0,1 5,0Z" style="opacity: 1; stroke-width: 0px; fill: rgb(81, 224, 81); fill-opacity: 1;"/><path class="point" transform="translate(122.55,58.92)" d="M5,0A5,5 0 1,1 0,-5A5,5 0 0,1 5,0Z" style="opacity: 1; stroke-width: 0px; fill: rgb(81, 224, 81); fill-opacity: 1;"/><path class="point" transform="translate(166.82,56.42)" d="M5,0A5,5 0 1,1 0,-5A5,5 0 0,1 5,0Z" style="opacity: 1; stroke-width: 0px; fill: rgb(81, 224, 81); fill-opacity: 1;"/><path class="point" transform="translate(255.36,68.24)" d="M5,0A5,5 0 1,1 0,-5A5,5 0 0,1 5,0Z" style="opacity: 1; stroke-width: 0px; fill: rgb(81, 224, 81); fill-opacity: 1;"/><path class="point" transform="translate(343.91,83.68)" d="M5,0A5,5 0 1,1 0,-5A5,5 0 0,1 5,0Z" style="opacity: 1; stroke-width: 0px; fill: rgb(81, 224, 81); fill-opacity: 1;"/><path class="point" transform="translate(521,110.06)" d="M5,0A5,5 0 1,1 0,-5A5,5 0 0,1 5,0Z" style="opacity: 1; stroke-width: 0px; fill: rgb(81, 224, 81); fill-opacity: 1;"/></g><g class="text"/></g><g class="trace scatter traced47023" style="stroke-miterlimit: 2; opacity: 1;"><g class="fills"/><g class="errorbars"><g class="errorbar"><path class="yerror" d="M30,184.35h8m-4,0V187.16m-4,0h8" style="vector-effect: none; stroke-width: 2px; stroke: rgb(81, 224, 224); stroke-opacity: 1;"/></g><g class="errorbar"><path class="yerror" d="M52.14,144.88h8m-4,0V147.03m-4,0h8" style="vector-effect: none; stroke-width: 2px; stroke: rgb(81, 224, 224); stroke-opacity: 1;"/></g><g class="errorbar"><path class="yerror" d="M74.27,119.08h8m-4,0V120.72m-4,0h8" style="vector-effect: none; stroke-width: 2px; stroke: rgb(81, 224, 224); stroke-opacity: 1;"/></g><g class="errorbar"><path class="yerror" d="M118.55,91.53h8m-4,0V92.28m-4,0h8" style="vector-effect: none; stroke-width: 2px; stroke: rgb(81, 224, 224); stroke-opacity: 1;"/></g><g class="errorbar"><path class="yerror" d="M162.82,81.83h8m-4,0V82.42m-4,0h8" style="vector-effect: none; stroke-width: 2px; stroke: rgb(81, 224, 224); stroke-opacity: 1;"/></g><g class="errorbar"><path class="yerror" d="M251.36,83.13h8m-4,0V83.45m-4,0h8" style="vector-effect: none; stroke-width: 2px; stroke: rgb(81, 224, 224); stroke-opacity: 1;"/></g><g class="errorbar"><path class="yerror" d="M339.91,92.8h8m-4,0V93.08m-4,0h8" style="vector-effect: none; stroke-width: 2px; stroke: rgb(81, 224, 224); stroke-opacity: 1;"/></g><g class="errorbar"><path class="yerror" d="M517,114.13h8m-4,0V114.53m-4,0h8" style="vector-effect: none; stroke-width: 2px; stroke: rgb(81, 224, 224); stroke-opacity: 1;"/></g></g><g class="lines"><path class="js-line" d="M34,185.76L56.14,145.96L78.27,119.9L122.55,91.9L166.82,82.13L255.36,83.29L343.91,92.94L521,114.33" style="vector-effect: none; fill: none; stroke: rgb(81, 224, 224); stroke-opacity: 1; stroke-width: 2px; opacity: 1;"/></g><g class="points"><path class="point" transform="translate(34,185.76)" d="M5,0A5,5 0 1,1 0,-5A5,5 0 0,1 5,0Z" style="opacity: 1; stroke-width: 0px; fill: rgb(81, 224, 224); fill-opacity: 1;"/><path class="point" transform="translate(56.14,145.96)" d="M5,0A5,5 0 1,1 0,-5A5,5 0 0,1 5,0Z" style="opacity: 1; stroke-width: 0px; fill: rgb(81, 224, 224); fill-opacity: 1;"/><path class="point" transform="translate(78.27,119.9)" d="M5,0A5,5 0 1,1 0,-5A5,5 0 0,1 5,0Z" style="opacity: 1; stroke-width: 0px; fill: rgb(81, 224, 224); fill-opacity: 1;"/><path class="point" transform="translate(122.55,91.9)" d="M5,0A5,5 0 1,1 0,-5A5,5 0 0,1 5,0Z" style="opacity: 1; stroke-width: 0px; fill: rgb(81, 224, 224); fill-opacity: 1;"/><path class="point" transform="translate(166.82,82.13)" d="M5,0A5,5 0 1,1 0,-5A5,5 0 0,1 5,0Z" style="opacity: 1; stroke-width: 0px; fill: rgb(81, 224, 224); fill-opacity: 1;"/><path class="point" transform="translate(255.36,83.29)" d="M5,0A5,5 0 1,1 0,-5A5,5 0 0,1 5,0Z" style="opacity: 1; stroke-width: 0px; fill: rgb(81, 224, 224); fill-opacity: 1;"/><path class="point" transform="translate(343.91,92.94)" d="M5,0A5,5 0 1,1 0,-5A5,5 0 0,1 5,0Z" style="opacity: 1; stroke-width: 0px; fill: rgb(81, 224, 224); fill-opacity: 1;"/><path class="point" transform="translate(521,114.33)" d="M5,0A5,5 0 1,1 0,-5A5,5 0 0,1 5,0Z" style="opacity: 1; stroke-width: 0px; fill: rgb(81, 224, 224); fill-opacity: 1;"/></g><g class="text"/></g><g class="trace scatter trace62d02a" style="stroke-miterlimit: 2; opacity: 1;"><g class="fills"/><g class="errorbars"><g class="errorbar"><path class="yerror" d="M30,213.4h8m-4,0V215.73m-4,0h8" style="vector-effect: none; stroke-width: 2px; stroke: rgb(81, 81, 224); stroke-opacity: 1;"/></g><g class="errorbar"><path class="yerror" d="M52.14,178.6h8m-4,0V180.43m-4,0h8" style="vector-effect: none; stroke-width: 2px; stroke: rgb(81, 81, 224); stroke-opacity: 1;"/></g><g class="errorbar"><path class="yerror" d="M74.27,154.18h8m-4,0V155.6m-4,0h8" style="vector-effect: none; stroke-width: 2px; stroke: rgb(81, 81, 224); stroke-opacity: 1;"/></g><g class="errorbar"><path class="yerror" d="M118.55,124.38h8m-4,0V125.15m-4,0h8" style="vector-effect: none; stroke-width: 2px; stroke: rgb(81, 81, 224); stroke-opacity: 1;"/></g><g class="errorbar"><path class="yerror" d="M162.82,110.03h8m-4,0V110.63m-4,0h8" style="vector-effect: none; stroke-width: 2px; stroke: rgb(81, 81, 224); stroke-opacity: 1;"/></g><g class="errorbar"><path class="yerror" d="M251.36,102.31h8m-4,0V102.53m-4,0h8" style="vector-effect: none; stroke-width: 2px; stroke: rgb(81, 81, 224); stroke-opacity: 1;"/></g><g class="errorbar"><path class="yerror" d="M339.91,105.76h8m-4,0V105.94m-4,0h8" style="vector-effect: none; stroke-width: 2px; stroke: rgb(81, 81, 224); stroke-opacity: 1;"/></g><g class="errorbar"><path class="yerror" d="M517,120.71h8m-4,0V121.03m-4,0h8" style="vector-effect: none; stroke-width: 2px; stroke: rgb(81, 81, 224); stroke-opacity: 1;"/></g></g><g class="lines"><path class="js-line" d="M34,214.57L56.14,179.52L78.27,154.89L122.55,124.77L166.82,110.33L255.36,102.42L343.91,105.85L521,120.87" style="vector-effect: none; fill: none; stroke: rgb(81, 81, 224); stroke-opacity: 1; stroke-width: 2px; opacity: 1;"/></g><g class="points"><path class="point" transform="translate(34,214.57)" d="M5,0A5,5 0 1,1 0,-5A5,5 0 0,1 5,0Z" style="opacity: 1; stroke-width: 0px; fill: rgb(81, 81, 224); fill-opacity: 1;"/><path class="point" transform="translate(56.14,179.52)" d="M5,0A5,5 0 1,1 0,-5A5,5 0 0,1 5,0Z" style="opacity: 1; stroke-width: 0px; fill: rgb(81, 81, 224); fill-opacity: 1;"/><path class="point" transform="translate(78.27,154.89)" d="M5,0A5,5 0 1,1 0,-5A5,5 0 0,1 5,0Z" style="opacity: 1; stroke-width: 0px; fill: rgb(81, 81, 224); fill-opacity: 1;"/><path class="point" transform="translate(122.55,124.77)" d="M5,0A5,5 0 1,1 0,-5A5,5 0 0,1 5,0Z" style="opacity: 1; stroke-width: 0px; fill: rgb(81, 81, 224); fill-opacity: 1;"/><path class="point" transform="translate(166.82,110.33)" d="M5,0A5,5 0 1,1 0,-5A5,5 0 0,1 5,0Z" style="opacity: 1; stroke-width: 0px; fill: rgb(81, 81, 224); fill-opacity: 1;"/><path class="point" transform="translate(255.36,102.42)" d="M5,0A5,5 0 1,1 0,-5A5,5 0 0,1 5,0Z" style="opacity: 1; stroke-width: 0px; fill: rgb(81, 81, 224); fill-opacity: 1;"/><path class="point" transform="translate(343.91,105.85)" d="M5,0A5,5 0 1,1 0,-5A5,5 0 0,1 5,0Z" style="opacity: 1; stroke-width: 0px; fill: rgb(81, 81, 224); fill-opacity: 1;"/><path class="point" transform="translate(521,120.87)" d="M5,0A5,5 0 1,1 0,-5A5,5 0 0,1 5,0Z" style="opacity: 1; stroke-width: 0px; fill: rgb(81, 81, 224); fill-opacity: 1;"/></g><g class="text"/></g><g class="trace scatter trace76dd2e" style="stroke-miterlimit: 2; opacity: 1;"><g class="fills"/><g class="errorbars"><g class="errorbar"><path class="yerror" d="M30,297.33h8m-4,0V298.17m-4,0h8" style="vector-effect: none; stroke-width: 2px; stroke: rgb(224, 81, 224); stroke-opacity: 1;"/></g><g class="errorbar"><path class="yerror" d="M52.14,282.18h8m-4,0V282.93m-4,0h8" style="vector-effect: none; stroke-width: 2px; stroke: rgb(224, 81, 224); stroke-opacity: 1;"/></g><g class="errorbar"><path class="yerror" d="M74.27,269.34h8m-4,0V270m-4,0h8" style="vector-effect: none; stroke-width: 2px; stroke: rgb(224, 81, 224); stroke-opacity: 1;"/></g><g class="errorbar"><path class="yerror" d="M118.55,248.52h8m-4,0V249.12m-4,0h8" style="vector-effect: none; stroke-width: 2px; stroke: rgb(224, 81, 224); stroke-opacity: 1;"/></g><g class="errorbar"><path class="yerror" d="M162.82,232.86h8m-4,0V233.43m-4,0h8" style="vector-effect: none; stroke-width: 2px; stroke: rgb(224, 81, 224); stroke-opacity: 1;"/></g><g class="errorbar"><path class="yerror" d="M251.36,211.19h8m-4,0V211.61m-4,0h8" style="vector-effect: none; stroke-width: 2px; stroke: rgb(224, 81, 224); stroke-opacity: 1;"/></g><g class="errorbar"><path class="yerror" d="M339.91,197.81h8m-4,0V198.08m-4,0h8" style="vector-effect: none; stroke-width: 2px; stroke: rgb(224, 81, 224); stroke-opacity: 1;"/></g><g class="errorbar"><path class="yerror" d="M517,184.69h8m-4,0V184.85m-4,0h8" style="vector-effect: none; stroke-width: 2px; stroke: rgb(224, 81, 224); stroke-opacity: 1;"/></g></g><g class="lines"><path class="js-line" d="M34,297.75L56.14,282.56L78.27,269.67L122.55,248.82L166.82,233.14L255.36,211.4L343.91,197.94L521,184.77" style="vector-effect: none; fill: none; stroke: rgb(224, 81, 224); stroke-opacity: 1; stroke-width: 2px; opacity: 1;"/></g><g class="points"><path class="point" transform="translate(34,297.75)" d="M5,0A5,5 0 1,1 0,-5A5,5 0 0,1 5,0Z" style="opacity: 1; stroke-width: 0px; fill: rgb(224, 81, 224); fill-opacity: 1;"/><path class="point" transform="translate(56.14,282.56)" d="M5,0A5,5 0 1,1 0,-5A5,5 0 0,1 5,0Z" style="opacity: 1; stroke-width: 0px; fill: rgb(224, 81, 224); fill-opacity: 1;"/><path class="point" transform="translate(78.27,269.67)" d="M5,0A5,5 0 1,1 0,-5A5,5 0 0,1 5,0Z" style="opacity: 1; stroke-width: 0px; fill: rgb(224, 81, 224); fill-opacity: 1;"/><path class="point" transform="translate(122.55,248.82)" d="M5,0A5,5 0 1,1 0,-5A5,5 0 0,1 5,0Z" style="opacity: 1; stroke-width: 0px; fill: rgb(224, 81, 224); fill-opacity: 1;"/><path class="point" transform="translate(166.82,233.14)" d="M5,0A5,5 0 1,1 0,-5A5,5 0 0,1 5,0Z" style="opacity: 1; stroke-width: 0px; fill: rgb(224, 81, 224); fill-opacity: 1;"/><path class="point" transform="translate(255.36,211.4)" d="M5,0A5,5 0 1,1 0,-5A5,5 0 0,1 5,0Z" style="opacity: 1; stroke-width: 0px; fill: rgb(224, 81, 224); fill-opacity: 1;"/><path class="point" transform="translate(343.91,197.94)" d="M5,0A5,5 0 1,1 0,-5A5,5 0 0,1 5,0Z" style="opacity: 1; stroke-width: 0px; fill: rgb(224, 81, 224); fill-opacity: 1;"/><path class="point" transform="translate(521,184.77)" d="M5,0A5,5 0 1,1 0,-5A5,5 0 0,1 5,0Z" style="opacity: 1; stroke-width: 0px; fill: rgb(224, 81, 224); fill-opacity: 1;"/></g><g class="text"/></g></g></g></g><path class="xlines-above crisp" d="M0,0" style="fill: none;"/><path class="ylines-above crisp" d="M0,0" style="fill: none;"/><g class="overlines-above"/><g class="xaxislayer-above"><g class="xtick"><text text-anchor="middle" x="0" y="439" transform="translate(158.26999999999998,0)" style="font-family: 'Latin Modern Roman'; font-size: 18px; fill: rgb(42, 63, 95); fill-opacity: 1; white-space: pre; opacity: 1;">2</text></g><g class="xtick"><text text-anchor="middle" x="0" y="439" style="font-family: 'Latin Modern Roman'; font-size: 18px; fill: rgb(42, 63, 95); fill-opacity: 1; white-space: pre; opacity: 1;" transform="translate(246.82,0)">4</text></g><g class="xtick"><text text-anchor="middle" x="0" y="439" style="font-family: 'Latin Modern Roman'; font-size: 18px; fill: rgb(42, 63, 95); fill-opacity: 1; white-space: pre; opacity: 1;" transform="translate(335.36,0)">6</text></g><g class="xtick"><text text-anchor="middle" x="0" y="439" style="font-family: 'Latin Modern Roman'; font-size: 18px; fill: rgb(42, 63, 95); fill-opacity: 1; white-space: pre; opacity: 1;" transform="translate(423.91,0)">8</text></g><g class="xtick"><text text-anchor="middle" x="0" y="439" style="font-family: 'Latin Modern Roman'; font-size: 18px; fill: rgb(42, 63, 95); fill-opacity: 1; white-space: pre; opacity: 1;" transform="translate(512.45,0)">10</text></g><g class="xtick"><text text-anchor="middle" x="0" y="439" style="font-family: 'Latin Modern Roman'; font-size: 18px; fill: rgb(42, 63, 95); fill-opacity: 1; white-space: pre; opacity: 1;" transform="translate(601,0)">12</text></g></g><g class="yaxislayer-above"><g class="ytick"><text text-anchor="end" x="79" y="6.3" transform="translate(0,400.45)" style="font-family: 'Latin Modern Roman'; font-size: 18px; fill: rgb(42, 63, 95); fill-opacity: 1; white-space: pre; opacity: 1;">0.5</text></g><g class="ytick"><text text-anchor="end" x="79" y="6.3" style="font-family: 'Latin Modern Roman'; font-size: 18px; fill: rgb(42, 63, 95); fill-opacity: 1; white-space: pre; opacity: 1;" transform="translate(0,362.61)">1</text></g><g class="ytick"><text text-anchor="end" x="79" y="6.3" style="font-family: 'Latin Modern Roman'; font-size: 18px; fill: rgb(42, 63, 95); fill-opacity: 1; white-space: pre; opacity: 1;" transform="translate(0,324.78)">1.5</text></g><g class="ytick"><text text-anchor="end" x="79" y="6.3" style="font-family: 'Latin Modern Roman'; font-size: 18px; fill: rgb(42, 63, 95); fill-opacity: 1; white-space: pre; opacity: 1;" transform="translate(0,286.95)">2</text></g><g class="ytick"><text text-anchor="end" x="79" y="6.3" style="font-family: 'Latin Modern Roman'; font-size: 18px; fill: rgb(42, 63, 95); fill-opacity: 1; white-space: pre; opacity: 1;" transform="translate(0,249.12)">2.5</text></g><g class="ytick"><text text-anchor="end" x="79" y="6.3" style="font-family: 'Latin Modern Roman'; font-size: 18px; fill: rgb(42, 63, 95); fill-opacity: 1; white-space: pre; opacity: 1;" transform="translate(0,211.29000000000002)">3</text></g><g class="ytick"><text text-anchor="end" x="79" y="6.3" style="font-family: 'Latin Modern Roman'; font-size: 18px; fill: rgb(42, 63, 95); fill-opacity: 1; white-space: pre; opacity: 1;" transform="translate(0,173.45999999999998)">3.5</text></g><g class="ytick"><text text-anchor="end" x="79" y="6.3" style="font-family: 'Latin Modern Roman'; font-size: 18px; fill: rgb(42, 63, 95); fill-opacity: 1; white-space: pre; opacity: 1;" transform="translate(0,135.62)">4</text></g></g><g class="overaxes-above"/></g></g><g class="polarlayer"/><g class="smithlayer"/><g class="ternarylayer"/><g class="geolayer"/><g class="funnelarealayer"/><g class="pielayer"/><g class="iciclelayer"/><g class="treemaplayer"/><g class="sunburstlayer"/><g class="glimages"/><defs id="topdefs-a0e15f"><g class="clips"/><clipPath id="legenda0e15f"><rect width="97" height="195" x="0" y="0"/></clipPath></defs><g class="layer-above"><g class="imagelayer"/><g class="shapelayer"/></g><g class="infolayer"><g class="legend" pointer-events="all" transform="translate(690.5,100)"><rect class="bg" shape-rendering="crispEdges" style="stroke: rgb(68, 68, 68); stroke-opacity: 1; fill: rgb(255, 255, 255); fill-opacity: 1; stroke-width: 0px;" width="97" height="195" x="0" y="0"/><g class="scrollbox" transform="" clip-path="url(#legenda0e15f)"><text class="legendtitletext" text-anchor="start" x="2" y="26" style="font-family: 'Latin Modern Roman'; font-size: 20px; fill: rgb(42, 63, 95); fill-opacity: 1; white-space: pre;">ε</text><g class="groups" transform=""><g class="traces" transform="translate(0,44.2)" style="opacity: 1;"><text class="legendtext" text-anchor="start" x="40" y="7.0200000000000005" style="font-family: 'Latin Modern Roman'; font-size: 18px; fill: rgb(42, 63, 95); fill-opacity: 1; white-space: pre;">0.001</text><g class="layers" style="opacity: 1;"><g class="legendfill"/><g class="legendlines"><path class="js-line" d="M5,0h30" style="fill: none; stroke: rgb(224, 81, 81); stroke-opacity: 1; stroke-width: 2px;"/></g><g class="legendsymbols"><g class="legendpoints"><path class="scatterpts" transform="translate(20,0)" d="M5,0A5,5 0 1,1 0,-5A5,5 0 0,1 5,0Z" style="opacity: 1; stroke-width: 0px; fill: rgb(224, 81, 81); fill-opacity: 1;"/></g></g></g><rect class="legendtoggle" x="0" y="-13.200000000000001" width="91.53125" height="26.400000000000002" style="fill: rgb(0, 0, 0); fill-opacity: 0;"/></g><g class="traces" transform="translate(0,70.60000000000001)" style="opacity: 1;"><text class="legendtext" text-anchor="start" x="40" y="7.0200000000000005" style="font-family: 'Latin Modern Roman'; font-size: 18px; fill: rgb(42, 63, 95); fill-opacity: 1; white-space: pre;">0.01</text><g class="layers" style="opacity: 1;"><g class="legendfill"/><g class="legendlines"><path class="js-line" d="M5,0h30" style="fill: none; stroke: rgb(224, 224, 81); stroke-opacity: 1; stroke-width: 2px;"/></g><g class="legendsymbols"><g class="legendpoints"><path class="scatterpts" transform="translate(20,0)" d="M5,0A5,5 0 1,1 0,-5A5,5 0 0,1 5,0Z" style="opacity: 1; stroke-width: 0px; fill: rgb(224, 224, 81); fill-opacity: 1;"/></g></g></g><rect class="legendtoggle" x="0" y="-13.200000000000001" width="91.53125" height="26.400000000000002" style="fill: rgb(0, 0, 0); fill-opacity: 0;"/></g><g class="traces" transform="translate(0,97.00000000000001)" style="opacity: 1;"><text class="legendtext" text-anchor="start" x="40" y="7.0200000000000005" style="font-family: 'Latin Modern Roman'; font-size: 18px; fill: rgb(42, 63, 95); fill-opacity: 1; white-space: pre;">0.02</text><g class="layers" style="opacity: 1;"><g class="legendfill"/><g class="legendlines"><path class="js-line" d="M5,0h30" style="fill: none; stroke: rgb(81, 224, 81); stroke-opacity: 1; stroke-width: 2px;"/></g><g class="legendsymbols"><g class="legendpoints"><path class="scatterpts" transform="translate(20,0)" d="M5,0A5,5 0 1,1 0,-5A5,5 0 0,1 5,0Z" style="opacity: 1; stroke-width: 0px; fill: rgb(81, 224, 81); fill-opacity: 1;"/></g></g></g><rect class="legendtoggle" x="0" y="-13.200000000000001" width="91.53125" height="26.400000000000002" style="fill: rgb(0, 0, 0); fill-opacity: 0;"/></g><g class="traces" transform="translate(0,123.4)" style="opacity: 1;"><text class="legendtext" text-anchor="start" x="40" y="7.0200000000000005" style="font-family: 'Latin Modern Roman'; font-size: 18px; fill: rgb(42, 63, 95); fill-opacity: 1; white-space: pre;">0.05</text><g class="layers" style="opacity: 1;"><g class="legendfill"/><g class="legendlines"><path class="js-line" d="M5,0h30" style="fill: none; stroke: rgb(81, 224, 224); stroke-opacity: 1; stroke-width: 2px;"/></g><g class="legendsymbols"><g class="legendpoints"><path class="scatterpts" transform="translate(20,0)" d="M5,0A5,5 0 1,1 0,-5A5,5 0 0,1 5,0Z" style="opacity: 1; stroke-width: 0px; fill: rgb(81, 224, 224); fill-opacity: 1;"/></g></g></g><rect class="legendtoggle" x="0" y="-13.200000000000001" width="91.53125" height="26.400000000000002" style="fill: rgb(0, 0, 0); fill-opacity: 0;"/></g><g class="traces" transform="translate(0,149.8)" style="opacity: 1;"><text class="legendtext" text-anchor="start" x="40" y="7.0200000000000005" style="font-family: 'Latin Modern Roman'; font-size: 18px; fill: rgb(42, 63, 95); fill-opacity: 1; white-space: pre;">0.1</text><g class="layers" style="opacity: 1;"><g class="legendfill"/><g class="legendlines"><path class="js-line" d="M5,0h30" style="fill: none; stroke: rgb(81, 81, 224); stroke-opacity: 1; stroke-width: 2px;"/></g><g class="legendsymbols"><g class="legendpoints"><path class="scatterpts" transform="translate(20,0)" d="M5,0A5,5 0 1,1 0,-5A5,5 0 0,1 5,0Z" style="opacity: 1; stroke-width: 0px; fill: rgb(81, 81, 224); fill-opacity: 1;"/></g></g></g><rect class="legendtoggle" x="0" y="-13.200000000000001" width="91.53125" height="26.400000000000002" style="fill: rgb(0, 0, 0); fill-opacity: 0;"/></g><g class="traces" transform="translate(0,176.2)" style="opacity: 1;"><text class="legendtext" text-anchor="start" x="40" y="7.0200000000000005" style="font-family: 'Latin Modern Roman'; font-size: 18px; fill: rgb(42, 63, 95); fill-opacity: 1; white-space: pre;">1.0</text><g class="layers" style="opacity: 1;"><g class="legendfill"/><g class="legendlines"><path class="js-line" d="M5,0h30" style="fill: none; stroke: rgb(224, 81, 224); stroke-opacity: 1; stroke-width: 2px;"/></g><g class="legendsymbols"><g class="legendpoints"><path class="scatterpts" transform="translate(20,0)" d="M5,0A5,5 0 1,1 0,-5A5,5 0 0,1 5,0Z" style="opacity: 1; stroke-width: 0px; fill: rgb(224, 81, 224); fill-opacity: 1;"/></g></g></g><rect class="legendtoggle" x="0" y="-13.200000000000001" width="91.53125" height="26.400000000000002" style="fill: rgb(0, 0, 0); fill-opacity: 0;"/></g></g></g><rect class="scrollbar" rx="20" ry="3" width="0" height="0" style="fill: rgb(128, 139, 164); fill-opacity: 1;" x="0" y="0"/></g><g class="g-gtitle"/><g class="g-xtitle"><text class="xtitle" x="357.5" y="471.5" text-anchor="middle" style="opacity: 1; font-family: 'Latin Modern Roman'; font-size: 20px; fill: rgb(42, 63, 95); fill-opacity: 1; white-space: pre;">Average number of non-zero units</text></g><g class="g-ytitle"><text class="ytitle" transform="rotate(-90,28.859375,260)" x="28.859375" y="260" text-anchor="middle" style="opacity: 1; font-family: 'Latin Modern Roman'; font-size: 20px; fill: rgb(42, 63, 95); fill-opacity: 1; white-space: pre;">Mutual Information (nats)</text></g></g></svg>