<svg class="main-svg" xmlns="http://www.w3.org/2000/svg" xmlns:xlink="http://www.w3.org/1999/xlink" width="2400" height="1500" style="" viewBox="0 0 800 500"><rect x="0" y="0" width="800" height="500" style="fill: rgb(255, 255, 255); fill-opacity: 1;"/><defs id="defs-eb50fe"><g class="clips"><clipPath id="clipeb50fexyplot" class="plotclip"><rect width="511" height="320"/></clipPath><clipPath class="axesclip" id="clipeb50fex"><rect x="80" y="0" width="511" height="500"/></clipPath><clipPath class="axesclip" id="clipeb50fey"><rect x="0" y="100" width="800" height="320"/></clipPath><clipPath class="axesclip" id="clipeb50fexy"><rect x="80" y="100" width="511" height="320"/></clipPath></g><g class="gradients"/><g class="patterns"/></defs><g class="bglayer"/><g class="layer-below"><g class="imagelayer"/><g class="shapelayer"/></g><g class="cartesianlayer"><g class="subplot xy"><g class="layer-subplot"><g class="shapelayer"/><g class="imagelayer"/></g><g class="minor-gridlayer"><g class="x"/><g class="y"/></g><g class="gridlayer"><g class="x"><path class="xgrid crisp" transform="translate(152.47,0)" d="M0,100v320" style="stroke: rgb(235, 240, 248); stroke-opacity: 1; stroke-width: 1px;"/><path class="xgrid crisp" transform="translate(233.82,0)" d="M0,100v320" style="stroke: rgb(235, 240, 248); stroke-opacity: 1; stroke-width: 1px;"/><path class="xgrid crisp" transform="translate(315.15999999999997,0)" d="M0,100v320" style="stroke: rgb(235, 240, 248); stroke-opacity: 1; stroke-width: 1px;"/><path class="xgrid crisp" transform="translate(396.51,0)" d="M0,100v320" style="stroke: rgb(235, 240, 248); stroke-opacity: 1; stroke-width: 1px;"/><path class="xgrid crisp" transform="translate(477.85,0)" d="M0,100v320" style="stroke: rgb(235, 240, 248); stroke-opacity: 1; stroke-width: 1px;"/><path class="xgrid crisp" transform="translate(559.2,0)" d="M0,100v320" style="stroke: rgb(235, 240, 248); stroke-opacity: 1; stroke-width: 1px;"/></g><g class="y"><path class="ygrid crisp" transform="translate(0,369.4)" d="M80,0h511" style="stroke: rgb(235, 240, 248); stroke-opacity: 1; stroke-width: 1px;"/><path class="ygrid crisp" transform="translate(0,281.72)" d="M80,0h511" style="stroke: rgb(235, 240, 248); stroke-opacity: 1; stroke-width: 1px;"/><path class="ygrid crisp" transform="translate(0,194.05)" d="M80,0h511" style="stroke: rgb(235, 240, 248); stroke-opacity: 1; stroke-width: 1px;"/><path class="ygrid crisp" transform="translate(0,106.38)" d="M80,0h511" style="stroke: rgb(235, 240, 248); stroke-opacity: 1; stroke-width: 1px;"/></g></g><g class="zerolinelayer"/><g class="layer-between"><g class="shapelayer"/><g class="imagelayer"/></g><path class="xlines-below"/><path class="ylines-below"/><g class="overlines-below"/><g class="xaxislayer-below"/><g class="yaxislayer-below"/><g class="overaxes-below"/><g class="overplot"><g class="xy" transform="translate(80,100)" clip-path="url(#clipeb50fexyplot)"><g class="scatterlayer mlayer"><g class="trace scatter trace9c7972" style="stroke-miterlimit: 2; opacity: 1;"><g class="fills"/><g class="errorbars"><g class="errorbar"><path class="yerror" d="M27.8,266.61h8m-4,0V304m-4,0h8" style="vector-effect: none; stroke-width: 2px; stroke: rgb(224, 81, 81); stroke-opacity: 1;"/></g><g class="errorbar"><path class="yerror" d="M48.14,167.81h8m-4,0V218.64m-4,0h8" style="vector-effect: none; stroke-width: 2px; stroke: rgb(224, 81, 81); stroke-opacity: 1;"/></g><g class="errorbar"><path class="yerror" d="M68.47,120.27h8m-4,0V149.97m-4,0h8" style="vector-effect: none; stroke-width: 2px; stroke: rgb(224, 81, 81); stroke-opacity: 1;"/></g><g class="errorbar"><path class="yerror" d="M109.15,82.92h8m-4,0V102.48m-4,0h8" style="vector-effect: none; stroke-width: 2px; stroke: rgb(224, 81, 81); stroke-opacity: 1;"/></g><g class="errorbar"><path class="yerror" d="M149.82,78.67h8m-4,0V97.13m-4,0h8" style="vector-effect: none; stroke-width: 2px; stroke: rgb(224, 81, 81); stroke-opacity: 1;"/></g><g class="errorbar"><path class="yerror" d="M231.16,105.08h8m-4,0V117.89m-4,0h8" style="vector-effect: none; stroke-width: 2px; stroke: rgb(224, 81, 81); stroke-opacity: 1;"/></g><g class="errorbar"><path class="yerror" d="M312.51,139.18h8m-4,0V151.95m-4,0h8" style="vector-effect: none; stroke-width: 2px; stroke: rgb(224, 81, 81); stroke-opacity: 1;"/></g><g class="errorbar"><path class="yerror" d="M475.2,194.78h8m-4,0V206.85m-4,0h8" style="vector-effect: none; stroke-width: 2px; stroke: rgb(224, 81, 81); stroke-opacity: 1;"/></g></g><g class="lines"><path class="js-line" d="M31.8,285.31L52.14,193.22L72.47,135.12L113.15,92.7L153.82,87.9L235.16,111.49L316.51,145.56L479.2,200.81" style="vector-effect: none; fill: none; stroke: rgb(224, 81, 81); stroke-opacity: 1; stroke-width: 2px; opacity: 1;"/></g><g class="points"><path class="point" transform="translate(31.8,285.31)" d="M5,0A5,5 0 1,1 0,-5A5,5 0 0,1 5,0Z" style="opacity: 1; stroke-width: 0px; fill: rgb(224, 81, 81); fill-opacity: 1;"/><path class="point" transform="translate(52.14,193.22)" d="M5,0A5,5 0 1,1 0,-5A5,5 0 0,1 5,0Z" style="opacity: 1; stroke-width: 0px; fill: rgb(224, 81, 81); fill-opacity: 1;"/><path class="point" transform="translate(72.47,135.12)" d="M5,0A5,5 0 1,1 0,-5A5,5 0 0,1 5,0Z" style="opacity: 1; stroke-width: 0px; fill: rgb(224, 81, 81); fill-opacity: 1;"/><path class="point" transform="translate(113.15,92.7)" d="M5,0A5,5 0 1,1 0,-5A5,5 0 0,1 5,0Z" style="opacity: 1; stroke-width: 0px; fill: rgb(224, 81, 81); fill-opacity: 1;"/><path class="point" transform="translate(153.82,87.9)" d="M5,0A5,5 0 1,1 0,-5A5,5 0 0,1 5,0Z" style="opacity: 1; stroke-width: 0px; fill: rgb(224, 81, 81); fill-opacity: 1;"/><path class="point" transform="translate(235.16,111.49)" d="M5,0A5,5 0 1,1 0,-5A5,5 0 0,1 5,0Z" style="opacity: 1; stroke-width: 0px; fill: rgb(224, 81, 81); fill-opacity: 1;"/><path class="point" transform="translate(316.51,145.56)" d="M5,0A5,5 0 1,1 0,-5A5,5 0 0,1 5,0Z" style="opacity: 1; stroke-width: 0px; fill: rgb(224, 81, 81); fill-opacity: 1;"/><path class="point" transform="translate(479.2,200.81)" d="M5,0A5,5 0 1,1 0,-5A5,5 0 0,1 5,0Z" style="opacity: 1; stroke-width: 0px; fill: rgb(224, 81, 81); fill-opacity: 1;"/></g><g class="text"/></g><g class="trace scatter trace6af2e6" style="stroke-miterlimit: 2; opacity: 1;"><g class="fills"/><g class="errorbars"><g class="errorbar"><path class="yerror" d="M27.8,260.95h8m-4,0V297.02m-4,0h8" style="vector-effect: none; stroke-width: 2px; stroke: rgb(195, 224, 81); stroke-opacity: 1;"/></g><g class="errorbar"><path class="yerror" d="M48.14,161.82h8m-4,0V199.01m-4,0h8" style="vector-effect: none; stroke-width: 2px; stroke: rgb(195, 224, 81); stroke-opacity: 1;"/></g><g class="errorbar"><path class="yerror" d="M68.47,108.56h8m-4,0V138.08m-4,0h8" style="vector-effect: none; stroke-width: 2px; stroke: rgb(195, 224, 81); stroke-opacity: 1;"/></g><g class="errorbar"><path class="yerror" d="M109.15,72.31h8m-4,0V87.79m-4,0h8" style="vector-effect: none; stroke-width: 2px; stroke: rgb(195, 224, 81); stroke-opacity: 1;"/></g><g class="errorbar"><path class="yerror" d="M149.82,71.16h8m-4,0V81.77m-4,0h8" style="vector-effect: none; stroke-width: 2px; stroke: rgb(195, 224, 81); stroke-opacity: 1;"/></g><g class="errorbar"><path class="yerror" d="M231.16,100.04h8m-4,0V109.32m-4,0h8" style="vector-effect: none; stroke-width: 2px; stroke: rgb(195, 224, 81); stroke-opacity: 1;"/></g><g class="errorbar"><path class="yerror" d="M312.51,134.02h8m-4,0V145.12m-4,0h8" style="vector-effect: none; stroke-width: 2px; stroke: rgb(195, 224, 81); stroke-opacity: 1;"/></g><g class="errorbar"><path class="yerror" d="M475.2,191.65h8m-4,0V201.72m-4,0h8" style="vector-effect: none; stroke-width: 2px; stroke: rgb(195, 224, 81); stroke-opacity: 1;"/></g></g><g class="lines"><path class="js-line" d="M31.8,278.98L52.14,180.41L72.47,123.32L113.15,80.05L153.82,76.47L235.16,104.68L316.51,139.57L479.2,196.69" style="vector-effect: none; fill: none; stroke: rgb(195, 224, 81); stroke-opacity: 1; stroke-width: 2px; opacity: 1;"/></g><g class="points"><path class="point" transform="translate(31.8,278.98)" d="M5,0A5,5 0 1,1 0,-5A5,5 0 0,1 5,0Z" style="opacity: 1; stroke-width: 0px; fill: rgb(195, 224, 81); fill-opacity: 1;"/><path class="point" transform="translate(52.14,180.41)" d="M5,0A5,5 0 1,1 0,-5A5,5 0 0,1 5,0Z" style="opacity: 1; stroke-width: 0px; fill: rgb(195, 224, 81); fill-opacity: 1;"/><path class="point" transform="translate(72.47,123.32)" d="M5,0A5,5 0 1,1 0,-5A5,5 0 0,1 5,0Z" style="opacity: 1; stroke-width: 0px; fill: rgb(195, 224, 81); fill-opacity: 1;"/><path class="point" transform="translate(113.15,80.05)" d="M5,0A5,5 0 1,1 0,-5A5,5 0 0,1 5,0Z" style="opacity: 1; stroke-width: 0px; fill: rgb(195, 224, 81); fill-opacity: 1;"/><path class="point" transform="translate(153.82,76.47)" d="M5,0A5,5 0 1,1 0,-5A5,5 0 0,1 5,0Z" style="opacity: 1; stroke-width: 0px; fill: rgb(195, 224, 81); fill-opacity: 1;"/><path class="point" transform="translate(235.16,104.68)" d="M5,0A5,5 0 1,1 0,-5A5,5 0 0,1 5,0Z" style="opacity: 1; stroke-width: 0px; fill: rgb(195, 224, 81); fill-opacity: 1;"/><path class="point" transform="translate(316.51,139.57)" d="M5,0A5,5 0 1,1 0,-5A5,5 0 0,1 5,0Z" style="opacity: 1; stroke-width: 0px; fill: rgb(195, 224, 81); fill-opacity: 1;"/><path class="point" transform="translate(479.2,196.69)" d="M5,0A5,5 0 1,1 0,-5A5,5 0 0,1 5,0Z" style="opacity: 1; stroke-width: 0px; fill: rgb(195, 224, 81); fill-opacity: 1;"/></g><g class="text"/></g><g class="trace scatter trace714df8" style="stroke-miterlimit: 2; opacity: 1;"><g class="fills"/><g class="errorbars"><g class="errorbar"><path class="yerror" d="M27.8,248.95h8m-4,0V280.93m-4,0h8" style="vector-effect: none; stroke-width: 2px; stroke: rgb(81, 224, 138); stroke-opacity: 1;"/></g><g class="errorbar"><path class="yerror" d="M48.14,146.7h8m-4,0V175.55m-4,0h8" style="vector-effect: none; stroke-width: 2px; stroke: rgb(81, 224, 138); stroke-opacity: 1;"/></g><g class="errorbar"><path class="yerror" d="M68.47,92.23h8m-4,0V112.83m-4,0h8" style="vector-effect: none; stroke-width: 2px; stroke: rgb(81, 224, 138); stroke-opacity: 1;"/></g><g class="errorbar"><path class="yerror" d="M109.15,54.84h8m-4,0V63.73m-4,0h8" style="vector-effect: none; stroke-width: 2px; stroke: rgb(81, 224, 138); stroke-opacity: 1;"/></g><g class="errorbar"><path class="yerror" d="M149.82,55.29h8m-4,0V62.84m-4,0h8" style="vector-effect: none; stroke-width: 2px; stroke: rgb(81, 224, 138); stroke-opacity: 1;"/></g><g class="errorbar"><path class="yerror" d="M231.16,88.83h8m-4,0V96.24m-4,0h8" style="vector-effect: none; stroke-width: 2px; stroke: rgb(81, 224, 138); stroke-opacity: 1;"/></g><g class="errorbar"><path class="yerror" d="M312.51,125.89h8m-4,0V133.39m-4,0h8" style="vector-effect: none; stroke-width: 2px; stroke: rgb(81, 224, 138); stroke-opacity: 1;"/></g><g class="errorbar"><path class="yerror" d="M475.2,186.58h8m-4,0V192.89m-4,0h8" style="vector-effect: none; stroke-width: 2px; stroke: rgb(81, 224, 138); stroke-opacity: 1;"/></g></g><g class="lines"><path class="js-line" d="M31.8,264.94L52.14,161.13L72.47,102.53L113.15,59.29L153.82,59.07L235.16,92.53L316.51,129.64L479.2,189.74" style="vector-effect: none; fill: none; stroke: rgb(81, 224, 138); stroke-opacity: 1; stroke-width: 2px; opacity: 1;"/></g><g class="points"><path class="point" transform="translate(31.8,264.94)" d="M5,0A5,5 0 1,1 0,-5A5,5 0 0,1 5,0Z" style="opacity: 1; stroke-width: 0px; fill: rgb(81, 224, 138); fill-opacity: 1;"/><path class="point" transform="translate(52.14,161.13)" d="M5,0A5,5 0 1,1 0,-5A5,5 0 0,1 5,0Z" style="opacity: 1; stroke-width: 0px; fill: rgb(81, 224, 138); fill-opacity: 1;"/><path class="point" transform="translate(72.47,102.53)" d="M5,0A5,5 0 1,1 0,-5A5,5 0 0,1 5,0Z" style="opacity: 1; stroke-width: 0px; fill: rgb(81, 224, 138); fill-opacity: 1;"/><path class="point" transform="translate(113.15,59.29)" d="M5,0A5,5 0 1,1 0,-5A5,5 0 0,1 5,0Z" style="opacity: 1; stroke-width: 0px; fill: rgb(81, 224, 138); fill-opacity: 1;"/><path class="point" transform="translate(153.82,59.07)" d="M5,0A5,5 0 1,1 0,-5A5,5 0 0,1 5,0Z" style="opacity: 1; stroke-width: 0px; fill: rgb(81, 224, 138); fill-opacity: 1;"/><path class="point" transform="translate(235.16,92.53)" d="M5,0A5,5 0 1,1 0,-5A5,5 0 0,1 5,0Z" style="opacity: 1; stroke-width: 0px; fill: rgb(81, 224, 138); fill-opacity: 1;"/><path class="point" transform="translate(316.51,129.64)" d="M5,0A5,5 0 1,1 0,-5A5,5 0 0,1 5,0Z" style="opacity: 1; stroke-width: 0px; fill: rgb(81, 224, 138); fill-opacity: 1;"/><path class="point" transform="translate(479.2,189.74)" d="M5,0A5,5 0 1,1 0,-5A5,5 0 0,1 5,0Z" style="opacity: 1; stroke-width: 0px; fill: rgb(81, 224, 138); fill-opacity: 1;"/></g><g class="text"/></g><g class="trace scatter tracef08942" style="stroke-miterlimit: 2; opacity: 1;"><g class="fills"/><g class="errorbars"><g class="errorbar"><path class="yerror" d="M27.8,218.32h8m-4,0V235.86m-4,0h8" style="vector-effect: none; stroke-width: 2px; stroke: rgb(81, 138, 224); stroke-opacity: 1;"/></g><g class="errorbar"><path class="yerror" d="M48.14,116.9h8m-4,0V129.95m-4,0h8" style="vector-effect: none; stroke-width: 2px; stroke: rgb(81, 138, 224); stroke-opacity: 1;"/></g><g class="errorbar"><path class="yerror" d="M68.47,62.36h8m-4,0V71.63m-4,0h8" style="vector-effect: none; stroke-width: 2px; stroke: rgb(81, 138, 224); stroke-opacity: 1;"/></g><g class="errorbar"><path class="yerror" d="M109.15,26.58h8m-4,0V31.09m-4,0h8" style="vector-effect: none; stroke-width: 2px; stroke: rgb(81, 138, 224); stroke-opacity: 1;"/></g><g class="errorbar"><path class="yerror" d="M149.82,32.5h8m-4,0V34.6m-4,0h8" style="vector-effect: none; stroke-width: 2px; stroke: rgb(81, 138, 224); stroke-opacity: 1;"/></g><g class="errorbar"><path class="yerror" d="M231.16,71.49h8m-4,0V74.09m-4,0h8" style="vector-effect: none; stroke-width: 2px; stroke: rgb(81, 138, 224); stroke-opacity: 1;"/></g><g class="errorbar"><path class="yerror" d="M312.51,112.23h8m-4,0V115.05m-4,0h8" style="vector-effect: none; stroke-width: 2px; stroke: rgb(81, 138, 224); stroke-opacity: 1;"/></g><g class="errorbar"><path class="yerror" d="M475.2,176.8h8m-4,0V179.46m-4,0h8" style="vector-effect: none; stroke-width: 2px; stroke: rgb(81, 138, 224); stroke-opacity: 1;"/></g></g><g class="lines"><path class="js-line" d="M31.8,227.09L52.14,123.43L72.47,66.99L113.15,28.84L153.82,33.55L235.16,72.79L316.51,113.64L479.2,178.13" style="vector-effect: none; fill: none; stroke: rgb(81, 138, 224); stroke-opacity: 1; stroke-width: 2px; opacity: 1;"/></g><g class="points"><path class="point" transform="translate(31.8,227.09)" d="M5,0A5,5 0 1,1 0,-5A5,5 0 0,1 5,0Z" style="opacity: 1; stroke-width: 0px; fill: rgb(81, 138, 224); fill-opacity: 1;"/><path class="point" transform="translate(52.14,123.43)" d="M5,0A5,5 0 1,1 0,-5A5,5 0 0,1 5,0Z" style="opacity: 1; stroke-width: 0px; fill: rgb(81, 138, 224); fill-opacity: 1;"/><path class="point" transform="translate(72.47,66.99)" d="M5,0A5,5 0 1,1 0,-5A5,5 0 0,1 5,0Z" style="opacity: 1; stroke-width: 0px; fill: rgb(81, 138, 224); fill-opacity: 1;"/><path class="point" transform="translate(113.15,28.84)" d="M5,0A5,5 0 1,1 0,-5A5,5 0 0,1 5,0Z" style="opacity: 1; stroke-width: 0px; fill: rgb(81, 138, 224); fill-opacity: 1;"/><path class="point" transform="translate(153.82,33.55)" d="M5,0A5,5 0 1,1 0,-5A5,5 0 0,1 5,0Z" style="opacity: 1; stroke-width: 0px; fill: rgb(81, 138, 224); fill-opacity: 1;"/><path class="point" transform="translate(235.16,72.79)" d="M5,0A5,5 0 1,1 0,-5A5,5 0 0,1 5,0Z" style="opacity: 1; stroke-width: 0px; fill: rgb(81, 138, 224); fill-opacity: 1;"/><path class="point" transform="translate(316.51,113.64)" d="M5,0A5,5 0 1,1 0,-5A5,5 0 0,1 5,0Z" style="opacity: 1; stroke-width: 0px; fill: rgb(81, 138, 224); fill-opacity: 1;"/><path class="point" transform="translate(479.2,178.13)" d="M5,0A5,5 0 1,1 0,-5A5,5 0 0,1 5,0Z" style="opacity: 1; stroke-width: 0px; fill: rgb(81, 138, 224); fill-opacity: 1;"/></g><g class="text"/></g><g class="trace scatter trace777776" style="stroke-miterlimit: 2; opacity: 1;"><g class="fills"/><g class="errorbars"><g class="errorbar"><path class="yerror" d="M27.8,212.16h8m-4,0V220.69m-4,0h8" style="vector-effect: none; stroke-width: 2px; stroke: rgb(195, 81, 224); stroke-opacity: 1;"/></g><g class="errorbar"><path class="yerror" d="M48.14,111.29h8m-4,0V117.53m-4,0h8" style="vector-effect: none; stroke-width: 2px; stroke: rgb(195, 81, 224); stroke-opacity: 1;"/></g><g class="errorbar"><path class="yerror" d="M68.47,57.39h8m-4,0V62.21m-4,0h8" style="vector-effect: none; stroke-width: 2px; stroke: rgb(195, 81, 224); stroke-opacity: 1;"/></g><g class="errorbar"><path class="yerror" d="M109.15,21.33h8m-4,0V23.17m-4,0h8" style="vector-effect: none; stroke-width: 2px; stroke: rgb(195, 81, 224); stroke-opacity: 1;"/></g><g class="errorbar"><path class="yerror" d="M149.82,26.77h8m-4,0V28.4m-4,0h8" style="vector-effect: none; stroke-width: 2px; stroke: rgb(195, 81, 224); stroke-opacity: 1;"/></g><g class="errorbar"><path class="yerror" d="M231.16,67.44h8m-4,0V68.75m-4,0h8" style="vector-effect: none; stroke-width: 2px; stroke: rgb(195, 81, 224); stroke-opacity: 1;"/></g><g class="errorbar"><path class="yerror" d="M312.51,109.34h8m-4,0V110.27m-4,0h8" style="vector-effect: none; stroke-width: 2px; stroke: rgb(195, 81, 224); stroke-opacity: 1;"/></g><g class="errorbar"><path class="yerror" d="M475.2,174.86h8m-4,0V175.96m-4,0h8" style="vector-effect: none; stroke-width: 2px; stroke: rgb(195, 81, 224); stroke-opacity: 1;"/></g></g><g class="lines"><path class="js-line" d="M31.8,216.43L52.14,114.41L72.47,59.8L113.15,22.25L153.82,27.58L235.16,68.1L316.51,109.81L479.2,175.41" style="vector-effect: none; fill: none; stroke: rgb(195, 81, 224); stroke-opacity: 1; stroke-width: 2px; opacity: 1;"/></g><g class="points"><path class="point" transform="translate(31.8,216.43)" d="M5,0A5,5 0 1,1 0,-5A5,5 0 0,1 5,0Z" style="opacity: 1; stroke-width: 0px; fill: rgb(195, 81, 224); fill-opacity: 1;"/><path class="point" transform="translate(52.14,114.41)" d="M5,0A5,5 0 1,1 0,-5A5,5 0 0,1 5,0Z" style="opacity: 1; stroke-width: 0px; fill: rgb(195, 81, 224); fill-opacity: 1;"/><path class="point" transform="translate(72.47,59.8)" d="M5,0A5,5 0 1,1 0,-5A5,5 0 0,1 5,0Z" style="opacity: 1; stroke-width: 0px; fill: rgb(195, 81, 224); fill-opacity: 1;"/><path class="point" transform="translate(113.15,22.25)" d="M5,0A5,5 0 1,1 0,-5A5,5 0 0,1 5,0Z" style="opacity: 1; stroke-width: 0px; fill: rgb(195, 81, 224); fill-opacity: 1;"/><path class="point" transform="translate(153.82,27.58)" d="M5,0A5,5 0 1,1 0,-5A5,5 0 0,1 5,0Z" style="opacity: 1; stroke-width: 0px; fill: rgb(195, 81, 224); fill-opacity: 1;"/><path class="point" transform="translate(235.16,68.1)" d="M5,0A5,5 0 1,1 0,-5A5,5 0 0,1 5,0Z" style="opacity: 1; stroke-width: 0px; fill: rgb(195, 81, 224); fill-opacity: 1;"/><path class="point" transform="translate(316.51,109.81)" d="M5,0A5,5 0 1,1 0,-5A5,5 0 0,1 5,0Z" style="opacity: 1; stroke-width: 0px; fill: rgb(195, 81, 224); fill-opacity: 1;"/><path class="point" transform="translate(479.2,175.41)" d="M5,0A5,5 0 1,1 0,-5A5,5 0 0,1 5,0Z" style="opacity: 1; stroke-width: 0px; fill: rgb(195, 81, 224); fill-opacity: 1;"/></g><g class="text"/></g></g></g></g><path class="xlines-above crisp" d="M0,0" style="fill: none;"/><path class="ylines-above crisp" d="M0,0" style="fill: none;"/><g class="overlines-above"/><g class="xaxislayer-above"><g class="xtick"><text text-anchor="middle" x="0" y="439" transform="translate(152.47,0)" style="font-family: 'Latin Modern Roman'; font-size: 18px; fill: rgb(42, 63, 95); fill-opacity: 1; white-space: pre; opacity: 1;">2</text></g><g class="xtick"><text text-anchor="middle" x="0" y="439" style="font-family: 'Latin Modern Roman'; font-size: 18px; fill: rgb(42, 63, 95); fill-opacity: 1; white-space: pre; opacity: 1;" transform="translate(233.82,0)">4</text></g><g class="xtick"><text text-anchor="middle" x="0" y="439" style="font-family: 'Latin Modern Roman'; font-size: 18px; fill: rgb(42, 63, 95); fill-opacity: 1; white-space: pre; opacity: 1;" transform="translate(315.15999999999997,0)">6</text></g><g class="xtick"><text text-anchor="middle" x="0" y="439" style="font-family: 'Latin Modern Roman'; font-size: 18px; fill: rgb(42, 63, 95); fill-opacity: 1; white-space: pre; opacity: 1;" transform="translate(396.51,0)">8</text></g><g class="xtick"><text text-anchor="middle" x="0" y="439" style="font-family: 'Latin Modern Roman'; font-size: 18px; fill: rgb(42, 63, 95); fill-opacity: 1; white-space: pre; opacity: 1;" transform="translate(477.85,0)">10</text></g><g class="xtick"><text text-anchor="middle" x="0" y="439" style="font-family: 'Latin Modern Roman'; font-size: 18px; fill: rgb(42, 63, 95); fill-opacity: 1; white-space: pre; opacity: 1;" transform="translate(559.2,0)">12</text></g></g><g class="yaxislayer-above"><g class="ytick"><text text-anchor="end" x="79" y="6.3" transform="translate(0,369.4)" style="font-family: 'Latin Modern Roman'; font-size: 18px; fill: rgb(42, 63, 95); fill-opacity: 1; white-space: pre; opacity: 1;">2.5</text></g><g class="ytick"><text text-anchor="end" x="79" y="6.3" style="font-family: 'Latin Modern Roman'; font-size: 18px; fill: rgb(42, 63, 95); fill-opacity: 1; white-space: pre; opacity: 1;" transform="translate(0,281.72)">3</text></g><g class="ytick"><text text-anchor="end" x="79" y="6.3" style="font-family: 'Latin Modern Roman'; font-size: 18px; fill: rgb(42, 63, 95); fill-opacity: 1; white-space: pre; opacity: 1;" transform="translate(0,194.05)">3.5</text></g><g class="ytick"><text text-anchor="end" x="79" y="6.3" style="font-family: 'Latin Modern Roman'; font-size: 18px; fill: rgb(42, 63, 95); fill-opacity: 1; white-space: pre; opacity: 1;" transform="translate(0,106.38)">4</text></g></g><g class="overaxes-above"/></g></g><g class="polarlayer"/><g class="smithlayer"/><g class="ternarylayer"/><g class="geolayer"/><g class="funnelarealayer"/><g class="pielayer"/><g class="iciclelayer"/><g class="treemaplayer"/><g class="sunburstlayer"/><g class="glimages"/><defs id="topdefs-eb50fe"><g class="clips"/><clipPath id="legendeb50fe"><rect width="146" height="168" x="0" y="0"/></clipPath></defs><g class="layer-above"><g class="imagelayer"/><g class="shapelayer"/></g><g class="infolayer"><g class="legend" pointer-events="all" transform="translate(642.1,100)"><rect class="bg" shape-rendering="crispEdges" style="stroke: rgb(68, 68, 68); stroke-opacity: 1; fill: rgb(255, 255, 255); fill-opacity: 1; stroke-width: 0px;" width="146" height="168" x="0" y="0"/><g class="scrollbox" transform="" clip-path="url(#legendeb50fe)"><text class="legendtitletext" text-anchor="start" x="2" y="26" style="font-family: 'Latin Modern Roman'; font-size: 20px; fill: rgb(42, 63, 95); fill-opacity: 1; white-space: pre;">Concentration</text><g class="groups" transform=""><g class="traces" transform="translate(0,44.2)" style="opacity: 1;"><text class="legendtext" text-anchor="start" x="40" y="7.0200000000000005" style="font-family: 'Latin Modern Roman'; font-size: 18px; fill: rgb(42, 63, 95); fill-opacity: 1; white-space: pre;">0.1</text><g class="layers" style="opacity: 1;"><g class="legendfill"/><g class="legendlines"><path class="js-line" d="M5,0h30" style="fill: none; stroke: rgb(224, 81, 81); stroke-opacity: 1; stroke-width: 2px;"/></g><g class="legendsymbols"><g class="legendpoints"><path class="scatterpts" transform="translate(20,0)" d="M5,0A5,5 0 1,1 0,-5A5,5 0 0,1 5,0Z" style="opacity: 1; stroke-width: 0px; fill: rgb(224, 81, 81); fill-opacity: 1;"/></g></g></g><rect class="legendtoggle" x="0" y="-13.200000000000001" width="91.53125" height="26.400000000000002" style="fill: rgb(0, 0, 0); fill-opacity: 0;"/></g><g class="traces" transform="translate(0,70.60000000000001)" style="opacity: 1;"><text class="legendtext" text-anchor="start" x="40" y="7.0200000000000005" style="font-family: 'Latin Modern Roman'; font-size: 18px; fill: rgb(42, 63, 95); fill-opacity: 1; white-space: pre;">0.316</text><g class="layers" style="opacity: 1;"><g class="legendfill"/><g class="legendlines"><path class="js-line" d="M5,0h30" style="fill: none; stroke: rgb(195, 224, 81); stroke-opacity: 1; stroke-width: 2px;"/></g><g class="legendsymbols"><g class="legendpoints"><path class="scatterpts" transform="translate(20,0)" d="M5,0A5,5 0 1,1 0,-5A5,5 0 0,1 5,0Z" style="opacity: 1; stroke-width: 0px; fill: rgb(195, 224, 81); fill-opacity: 1;"/></g></g></g><rect class="legendtoggle" x="0" y="-13.200000000000001" width="91.53125" height="26.400000000000002" style="fill: rgb(0, 0, 0); fill-opacity: 0;"/></g><g class="traces" transform="translate(0,97.00000000000001)" style="opacity: 1;"><text class="legendtext" text-anchor="start" x="40" y="7.0200000000000005" style="font-family: 'Latin Modern Roman'; font-size: 18px; fill: rgb(42, 63, 95); fill-opacity: 1; white-space: pre;">1.0</text><g class="layers" style="opacity: 1;"><g class="legendfill"/><g class="legendlines"><path class="js-line" d="M5,0h30" style="fill: none; stroke: rgb(81, 224, 138); stroke-opacity: 1; stroke-width: 2px;"/></g><g class="legendsymbols"><g class="legendpoints"><path class="scatterpts" transform="translate(20,0)" d="M5,0A5,5 0 1,1 0,-5A5,5 0 0,1 5,0Z" style="opacity: 1; stroke-width: 0px; fill: rgb(81, 224, 138); fill-opacity: 1;"/></g></g></g><rect class="legendtoggle" x="0" y="-13.200000000000001" width="91.53125" height="26.400000000000002" style="fill: rgb(0, 0, 0); fill-opacity: 0;"/></g><g class="traces" transform="translate(0,123.4)" style="opacity: 1;"><text class="legendtext" text-anchor="start" x="40" y="7.0200000000000005" style="font-family: 'Latin Modern Roman'; font-size: 18px; fill: rgb(42, 63, 95); fill-opacity: 1; white-space: pre;">10.0</text><g class="layers" style="opacity: 1;"><g class="legendfill"/><g class="legendlines"><path class="js-line" d="M5,0h30" style="fill: none; stroke: rgb(81, 138, 224); stroke-opacity: 1; stroke-width: 2px;"/></g><g class="legendsymbols"><g class="legendpoints"><path class="scatterpts" transform="translate(20,0)" d="M5,0A5,5 0 1,1 0,-5A5,5 0 0,1 5,0Z" style="opacity: 1; stroke-width: 0px; fill: rgb(81, 138, 224); fill-opacity: 1;"/></g></g></g><rect class="legendtoggle" x="0" y="-13.200000000000001" width="91.53125" height="26.400000000000002" style="fill: rgb(0, 0, 0); fill-opacity: 0;"/></g><g class="traces" transform="translate(0,149.8)" style="opacity: 1;"><text class="legendtext" text-anchor="start" x="40" y="7.0200000000000005" style="font-family: 'Latin Modern Roman'; font-size: 18px; fill: rgb(42, 63, 95); fill-opacity: 1; white-space: pre;">100.0</text><g class="layers" style="opacity: 1;"><g class="legendfill"/><g class="legendlines"><path class="js-line" d="M5,0h30" style="fill: none; stroke: rgb(195, 81, 224); stroke-opacity: 1; stroke-width: 2px;"/></g><g class="legendsymbols"><g class="legendpoints"><path class="scatterpts" transform="translate(20,0)" d="M5,0A5,5 0 1,1 0,-5A5,5 0 0,1 5,0Z" style="opacity: 1; stroke-width: 0px; fill: rgb(195, 81, 224); fill-opacity: 1;"/></g></g></g><rect class="legendtoggle" x="0" y="-13.200000000000001" width="91.53125" height="26.400000000000002" style="fill: rgb(0, 0, 0); fill-opacity: 0;"/></g></g></g><rect class="scrollbar" rx="20" ry="3" width="0" height="0" style="fill: rgb(128, 139, 164); fill-opacity: 1;" x="0" y="0"/></g><g class="g-gtitle"/><g class="g-xtitle"><text class="xtitle" x="335.5" y="471.5" text-anchor="middle" style="opacity: 1; font-family: 'Latin Modern Roman'; font-size: 20px; fill: rgb(42, 63, 95); fill-opacity: 1; white-space: pre;">Average number of non-zero units</text></g><g class="g-ytitle"><text class="ytitle" transform="rotate(-90,28.859375,260)" x="28.859375" y="260" text-anchor="middle" style="opacity: 1; font-family: 'Latin Modern Roman'; font-size: 20px; fill: rgb(42, 63, 95); fill-opacity: 1; white-space: pre;">Mutual Information (nats)</text></g></g></svg>